<svg width="42" height="40" viewBox="0 0 42 40" fill="none" xmlns="http://www.w3.org/2000/svg">
<path d="M20.1264 8.30149C23.3094 8.30149 26.3087 9.71256 28.5068 11.9184V11.9249C28.5068 10.8656 29.2195 10.0643 30.2045 10.0643H30.4546C32.009 10.0643 32.3204 11.5301 32.3204 11.9927L32.327 28.4551C32.2188 29.534 33.4409 30.0916 34.1198 29.3984C36.7582 26.6845 39.9204 15.4324 32.4768 8.91778C25.5348 2.83703 16.2176 3.84158 11.2639 7.25524C5.99876 10.893 2.6333 18.9281 5.90234 26.4799C9.47235 34.7131 19.6782 37.1691 25.7524 34.7196C28.8273 33.4779 30.2449 37.629 27.0488 38.988C22.2319 41.0427 8.80786 40.8329 2.53819 29.9756C-1.69762 22.6415 -1.47352 9.73992 9.76551 3.05592C18.3557 -2.06067 29.6898 -0.643084 36.5224 6.49043C43.6624 13.9549 43.2494 27.9209 36.2787 33.3502C33.1217 35.8193 28.4338 33.418 28.4677 29.8206L28.4325 28.648C26.2345 30.8251 23.3094 32.102 20.1264 32.102C13.8293 32.102 8.28539 26.5568 8.28539 20.2663C8.28539 13.908 13.8293 8.3041 20.1264 8.3041V8.30149ZM28.0468 19.8115C27.8084 15.2031 24.3882 12.4279 20.2554 12.4279H20.099C15.3355 12.4279 12.6893 16.1803 12.6893 20.4343C12.6893 25.2043 15.8853 28.2167 20.0795 28.2167C24.7609 28.2167 27.8345 24.7913 28.0586 20.7392L28.0468 19.8115Z" fill="white"/>
</svg>
